<svg width="16" height="14" viewBox="0 0 16 14" fill="none" xmlns="http://www.w3.org/2000/svg">
<path fill-rule="evenodd" clip-rule="evenodd" d="M0.728678 0.71909C0.837917 0.483647 1.07387 0.333008 1.33342 0.333008H14.6668C14.9263 0.333008 15.1623 0.483647 15.2715 0.71909C15.3807 0.954533 15.3434 1.23197 15.1758 1.43016L10.0001 7.55044V12.9997C10.0001 13.2307 9.88046 13.4453 9.68391 13.5668C9.48737 13.6882 9.24194 13.6993 9.03528 13.596L6.36861 12.2626C6.14276 12.1497 6.00009 11.9189 6.00009 11.6663V7.55044L0.824377 1.43016C0.656779 1.23197 0.61944 0.954533 0.728678 0.71909ZM2.77029 1.66634L7.1758 6.87586C7.27758 6.99621 7.33342 7.14873 7.33342 7.30634V11.2543L8.66676 11.921V7.30634C8.66676 7.14873 8.7226 6.99621 8.82438 6.87586L13.2299 1.66634H2.77029Z" fill="#2D3648"/>
</svg>
